<?xml version="1.0" encoding="utf-8"?>
<!-- Generator: Adobe Illustrator 26.5.0, SVG Export Plug-In . SVG Version: 6.00 Build 0)  -->
<svg version="1.1" id="Capa_1" xmlns="http://www.w3.org/2000/svg" xmlns:xlink="http://www.w3.org/1999/xlink" x="0px" y="0px"
	 viewBox="0 0 987.32 248.11" style="enable-background:new 0 0 987.32 248.11;" xml:space="preserve">
<style type="text/css">
	.st0{fill:#000064;}
	.st1{fill:#399AFF;}
	.st2{fill:#000064;stroke:#000064;stroke-width:3.5676;stroke-linecap:round;stroke-linejoin:round;stroke-miterlimit:10;}
</style>
<g>
	<g>
		<path class="st0" d="M262.44,91.64V64.62h124.05v27.03h-47.41v128.04h-29.24V91.64H262.44z"/>
		<path class="st0" d="M447.86,108.04l-4.43,26.36c-2.66-1.03-5.69-1.55-9.08-1.55c-8.27,0-14.77,3.03-19.49,9.08
			c-4.73,6.06-7.09,13.88-7.09,23.48v54.27h-27.91V109.81h27.91v17.5c6.79-13.73,16.98-20.6,30.57-20.6
			C441.73,106.71,444.9,107.15,447.86,108.04z"/>
		<path class="st0" d="M559.5,219.68h-28.36c-3.54-4.87-5.32-10.71-5.32-17.5c-7.68,13.73-19.94,20.6-36.77,20.6
			c-10.93,0-19.83-3.14-26.69-9.41c-6.87-6.28-10.3-14.58-10.3-24.92c0-10.48,3.69-18.75,11.08-24.81
			c7.38-6.05,16.76-9.89,28.13-11.52l33.01-5.1v-4.21c0-11.08-6.72-16.62-20.16-16.62c-6.35,0-11.23,1.18-14.62,3.54
			c-3.4,2.36-5.1,5.32-5.1,8.86c0,1.03,0.14,1.92,0.44,2.66l-25.03,8.42c-1.33-2.95-1.99-6.05-1.99-9.3
			c0-9.01,4.21-16.87,12.63-23.59c8.42-6.72,19.64-10.08,33.67-10.08c32.04,0,48.07,13.29,48.07,39.87v45.86
			C552.19,203.51,554.63,212.6,559.5,219.68z M495.7,200.19c8.42,0,15.29-2.77,20.6-8.31c5.32-5.54,7.97-13.4,7.97-23.59v-1.99
			l-26.58,4.43c-12.26,2.07-18.39,7.46-18.39,16.17c0,4.29,1.47,7.57,4.43,9.86C486.69,199.05,490.68,200.19,495.7,200.19z"/>
		<path class="st0" d="M657.86,176.49l22.6,14.62c-10.49,21.12-27.62,31.68-51.39,31.68c-16.54,0-30.31-5.35-41.32-16.06
			c-11-10.71-16.5-24.7-16.5-41.98c0-17.13,5.61-31.09,16.84-41.87c11.22-10.78,24.88-16.17,40.98-16.17
			c12.26,0,22.74,2.62,31.46,7.86c8.71,5.24,14.98,12.59,18.83,22.04l-22.82,15.06c-5.76-12.55-14.99-18.83-27.69-18.83
			c-8.42,0-15.4,2.92-20.94,8.75c-5.54,5.84-8.31,13.55-8.31,23.15c0,9.75,2.73,17.5,8.2,23.26c5.46,5.76,12.48,8.64,21.04,8.64
			c7.09,0,12.88-1.66,17.39-4.99C650.73,188.34,654.61,183.28,657.86,176.49z"/>
		<path class="st0" d="M724.32,64.62v78.42l33.45-33.23h34.56l-40.1,39.21l45.41,70.67h-32.12l-32.78-51.39l-8.42,8.2v43.2h-27.91
			V64.62H724.32z"/>
		<path class="st1" d="M811.37,93.86V64.62h30.57v29.24H811.37z M812.7,219.68V109.81h27.91v109.88H812.7z"/>
		<path class="st1" d="M968.66,144.81v74.88h-27.91v-63.36c0-15.65-7.46-23.48-22.37-23.48c-7.53,0-13.66,2.85-18.39,8.53
			c-4.73,5.69-7.09,13.18-7.09,22.49v55.82h-27.91V109.81h27.91v17.72c9.01-13.88,21.41-20.82,37.22-20.82
			c11.81,0,21.19,3.47,28.13,10.41C965.19,124.06,968.66,133.29,968.66,144.81z"/>
	</g>
	<g>
		<g>
			<path class="st2" d="M28.99,172.37c27.66,12.29,55.24,24.55,83.17,36.97c2.59-1.15,5.34-2.46,8.16-3.61
				c3.46-1.41,6.16-0.49,7.35,2.31c1.1,2.61-0.06,4.97-3.24,6.63c-0.14,0.07-0.29,0.1-0.43,0.17c-11.22,5.54-11.22,5.55-22.58,0.5
				c-25.49-11.32-50.92-22.76-76.49-33.88c-4.71-2.05-6.29-4.78-6.26-9.8c0.18-33.61,0.17-67.22,0.01-100.83
				c-0.02-4.85,1.64-7.43,6.13-9.39c27.67-12.07,55.23-24.38,82.76-36.75c3.23-1.45,5.88-1.52,9.13-0.05
				c27.67,12.44,55.39,24.78,83.18,36.96c4.11,1.8,5.78,4.11,5.73,8.67c-0.22,19.33-0.09,38.67-0.1,58.01
				c0,1.23,0.09,2.48-0.11,3.67c-0.41,2.47-2.46,4.21-4.76,4.23c-2.11,0.03-4.14-1.44-4.68-3.72c-0.35-1.47-0.36-3.04-0.36-4.56
				c-0.02-15.65-0.01-31.31-0.01-46.96c0-1.66,0-3.32,0-5.74c-2.08,0.85-3.58,1.41-5.04,2.05c-24.51,10.87-49.04,21.7-73.5,32.69
				c-3.35,1.51-6.13,1.61-9.55,0.07C82.9,98.95,58.22,88.07,33.57,77.13c-1.39-0.62-2.8-1.18-4.58-1.93
				C28.99,107.65,28.99,139.77,28.99,172.37z M187.21,67.94c0-0.36,0-0.73,0-1.09c-11.14-4.96-22.28-9.92-33.44-14.89
				c-25.21,11.23-50.32,22.25-76.19,33.93c12.21,5.43,23.37,10.39,34.62,15.4C137.24,90.16,162.23,79.05,187.21,67.94z M65.38,80.46
				c25.11-11.17,50.25-22.35,76.23-33.9c-10.46-4.65-19.95-8.87-29.42-13.08C87.01,44.73,61.9,55.7,36.28,67.33
				c1.57,0.82,2.22,1.2,2.9,1.5C47.84,72.68,56.5,76.53,65.38,80.46z"/>
			<path class="st2" d="M182.66,184.95c9.58,9.58,19.02,19.01,28.45,28.44c0.98,0.98,2.03,1.9,2.87,2.98
				c1.82,2.33,1.72,4.77-0.12,6.65c-1.84,1.88-4.35,2.02-6.65,0.27c-0.97-0.74-1.79-1.68-2.65-2.55
				c-9.54-9.54-19.08-19.09-28.84-28.85c-10.82,7.43-22.48,10.23-35.27,6.49c-9.37-2.74-16.71-8.23-22.02-16.38
				c-10.53-16.15-7.61-37.56,6.87-50.64c14.35-12.97,36.34-13.26,51.46-0.77C189.43,141.08,197.66,163.06,182.66,184.95z
				 M180.81,160.8c0.04-16.44-13.16-29.68-29.48-29.59c-16.03,0.09-29.32,13.39-29.37,29.4c-0.05,16.15,13.05,29.37,29.16,29.46
				C167.72,190.14,180.76,177.29,180.81,160.8z"/>
			<g>
				<path class="st1" d="M187.21,67.94c-24.99,11.11-49.98,22.22-75.02,33.35c-11.25-5.01-22.41-9.97-34.62-15.4
					c25.87-11.68,50.98-22.71,76.19-33.93c11.16,4.97,22.3,9.93,33.44,14.89C187.21,67.21,187.21,67.57,187.21,67.94z"/>
			</g>
			<g>
				<path class="st1" d="M65.38,80.46c-8.87-3.94-17.54-7.78-26.2-11.63c-0.68-0.3-1.33-0.69-2.9-1.5
					c25.62-11.63,50.74-22.6,75.91-33.84c9.47,4.21,18.96,8.43,29.42,13.08C115.63,58.12,90.48,69.3,65.38,80.46z"/>
			</g>
		</g>
	</g>
</g>
</svg>
